<svg xmlns="http://www.w3.org/2000/svg" width="599.999" height="337.444" viewBox="0 0 599.999 337.444"><g transform="translate(0 0)"><path d="M385.809,141.841c-3.834-8.169-7.5-16.445-12.718-23.884-4.564-12.7-12.171-23.839-18.058-36.968-7.53,11.744-14.483,22.546-21.3,33.362q-23.306,36.511-46.567,73.023a78.546,78.546,0,0,0-16.308-10.558Q302.487,127.3,334.1,77.763c.989-1.521,3.24-3.043,2.267-5.036s-3.529-.9-5.355-.9H198.156c-6.785,0-6.8,0-3.682,6.085q24.478,48.21,48.986,96.39l-.685,1.263-1.978.456-18.256-.228C206.721,144.655,190.9,113.514,174.7,81.582c-9.128,15.076-18.91,28.3-26.881,42.6a208.042,208.042,0,0,0-14.985,23.033q-11.592,17.8-23.215,35.568c-8.139,2.023-16.537,1.034-24.736,2.175l31.354-48.834c4.944-7.607,10.543-14.7,14.392-22.941,6.8-8.048,11.638-17.4,17.51-26.06,4.792-7.074,9.128-14.407,14-21.5a6.831,6.831,0,0,0,.38-7.941c-6.587-12.551-12.916-25.238-19.336-37.865a78.9,78.9,0,0,1,21.831,0c5.02,9.9,10.056,19.777,15,29.726a4.914,4.914,0,0,0,4.959,3.149q76.932-.152,153.865-.183a6.086,6.086,0,0,0,1.171-.5q-5.8-11.395-11.577-22.713c-2.388-4.686-4.975-9.265-7.211-14.026C317.3,6.977,321.382.055,330.479.055c20.081-.106,40.162,0,60.244.106q.091,9.66.167,19.29c-13.464,0-26.942.106-40.406,0-3.5,0-5.279.289-3.134,4.427q21.3,40.984,42.368,82.15a14.1,14.1,0,0,0,1.856,2.221c2.784,8.763,8.185,16.217,12.17,24.341,4.655,9.219,9.265,18.453,13.981,27.642,8.824,17.16,17.723,34.29,26.532,51.466,2.343,4.564,3.545,9.25-.685,13.464-5.02,5.02-12.4,3.21-16.232-4.092-7.226-13.813-14.255-27.749-21.45-41.577Q395.736,160.667,385.809,141.841Z" transform="translate(44.255 0.02)" fill="#e63938"/><path d="M174.724,79.146c-3.849,8.245-9.447,15.4-14.392,22.941-18.864-9.128-38.732-12.414-59.194-7.865-34.99,7.759-59.087,28.8-69.721,63.1s-2.8,65.051,21.831,90.928C97.5,294.912,177.6,280.962,202.488,222.635c9.463.882,19.047.35,28.433,2.328-17.054,43.661-48.682,70.421-94.929,76.993C59.911,312.742-3.938,252.787.185,176.113c2.86-54.25,47.4-102.308,100.908-109.458C127.031,63.248,151.555,66.9,174.724,79.146Z" transform="translate(0.004 34.13)" fill="#686868"/><path d="M227.554,117.115a78.545,78.545,0,0,1,16.308,10.558c6.466,8.2,11.592,16.9,12.064,27.779,1.2,27.84-18.879,48.195-46.932,47.4a112.19,112.19,0,0,1,5.964-19.655,24.615,24.615,0,0,0,21.937-22.82c.913-11.014-6.739-21.968-17.708-25.375a24.8,24.8,0,0,0-29,11.805c-5.827,10.512-3.605,22.485,5.69,30.533-1.993,6.739-3.149,13.692-6.815,19.929-5.781-4.564-11.319-9.523-15.441-15.791-7.607-15.061-7.911-30.122,0-45.183,5.735-9.3,14.148-15.38,23.869-19.883l1.978-.456a2.236,2.236,0,0,0,2.541-.761A56.532,56.532,0,0,1,227.554,117.115Z" transform="translate(87.484 59.721)" fill="#686868"/><path d="M219.371,160.924c4.123,6.268,9.66,11.151,15.441,15.791,0,1.521.35,3.134-.9,4.427-14.954-.426-29.8-2.769-44.8-2.282-9.386-1.978-18.971-1.521-28.433-2.328L80.05,171.451a37.2,37.2,0,0,0,26.745-17.571l60.548,3.834,27.383,1.217C202.85,160.726,211.217,159.494,219.371,160.924Z" transform="translate(41.737 80.233)" fill="#999"/><path d="M290.018,19.493q-.091-9.66-.167-19.29c6.237-.2,12.444-.7,18.605,1.171,13.692,4.214,23.565,18.256,22.074,31.552-1.734,15.7-14.452,28.327-29.5,29.148a125.532,125.532,0,0,1-12.885,0A9.843,9.843,0,0,1,278.091,52.7a10.117,10.117,0,0,1,9.234-10.3c3.666-.411,7.409-.091,11.121-.2,7.226-.228,11.592-4.412,11.653-11.09s-4.244-11.09-11.318-11.486C295.86,19.523,292.939,19.554,290.018,19.493Z" transform="translate(144.975 0.009)" fill="#999"/><path d="M156.036,19.841a78.9,78.9,0,0,0-21.831,0c-7.211-.106-14.437,0-21.633-.4-8.413-.456-13.007-7.272-9.691-13.9A9.371,9.371,0,0,1,111.827.064c23.413,0,46.841-.091,70.254,0,5.766,0,9.432,3.7,9.782,8.854a9.128,9.128,0,0,1-8.945,10.208C173.987,19.765,165.012,19.658,156.036,19.841Z" transform="translate(53.074 0.027)" fill="#999"/><path d="M182.006,189.8c1.248-1.293.913-2.89.9-4.427,3.666-6.176,4.822-13.19,6.815-19.929s4.168-13.372,6.329-19.914c2.1-6.374,7.044-9.447,12.292-7.835,5.659,1.734,8.078,6.922,6.222,13.6s-3.849,13.372-5.766,20.051A112.194,112.194,0,0,0,202.833,191c-1.445,4.184-2.814,8.4-4.336,12.551-2.191,5.9-6.952,8.671-12.17,7.181s-7.835-6.739-6.237-13.068C180.774,195.048,181.383,192.416,182.006,189.8Z" transform="translate(93.645 71.575)" fill="#e63938"/><path d="M188.772,117.918c11.942-.4,23.854-.943,35.735-2.328l18.256.228c-9.721,4.564-18.134,10.649-23.869,19.883-8.2.852-16.567,0-24.66,2.282-9.128-.837-18.256.426-27.292,1.08l-60.624,3.666a37.135,37.135,0,0,0-25.5-17.617l5.948-.335c8.2-1.141,16.6-.152,24.736-2.175,16.324.426,32.5-2.419,48.8-2.343C169.74,118.237,179.416,120,188.772,117.918Z" transform="translate(42.138 60.272)" fill="#999"/><path d="M170.276,135.6c-9.356,2.084-19.031.319-28.388,2.343A83.078,83.078,0,0,0,116.3,104.713,208.039,208.039,0,0,1,131.285,81.68C149.221,96.072,162.761,113.673,170.276,135.6Z" transform="translate(60.634 42.595)" fill="#686868"/><path d="M375.3,131.53c.228,1.141.472,2.267.669,3.423a91.8,91.8,0,0,1,1.2,16.491A82.225,82.225,0,0,0,375.3,131.53Z" transform="translate(195.652 68.582)" fill="#686868"/><path d="M392.29,163.754c.639-2.586,1.171-5.188,1.613-7.774a67.1,67.1,0,0,0-1.613,7.774Z" transform="translate(204.509 81.327)" fill="#afa68c"/><path d="M474.6,166.484a138.724,138.724,0,0,0-4.26-18.164c-8.367-26.912-24.9-48.59-49.929-64.351C386.073,62.351,349.5,59.841,311.681,74.247c2.8,8.763,8.2,16.217,12.17,24.341a91.978,91.978,0,0,1,121.294,60c.715,2.434,1.308,4.929,1.841,7.454a82.227,82.227,0,0,1,1.871,19.914,90.02,90.02,0,0,1-1.415,14.65,91.978,91.978,0,0,1-179.925,5.385c-9.128-37.135,5.34-74.133,38.58-98.2-3.834-8.169-7.5-16.445-12.718-23.884C253.172,107.214,230.413,159.745,240,207.133c12.749,62.982,70.832,104.027,134.59,95.081,45.822-6.42,85.193-41.592,97.227-86.334.426-1.521.73-3.225,1.019-4.868a67.046,67.046,0,0,1,1.613-7.774A113.691,113.691,0,0,0,474.6,166.484Z" transform="translate(123.981 34.008)" fill="#686868"/><path d="M189.3,114.61l1.856.5a2.236,2.236,0,0,1-2.541.761Z" transform="translate(98.335 59.761)" fill="#999"/><path d="M93.519,121.867a37.15,37.15,0,0,1,25.5,17.6,37.318,37.318,0,0,1,0,31.126,37.2,37.2,0,0,1-26.744,17.571c-16.217-.137-29-8.489-33.743-22.074a32.845,32.845,0,0,1,10.938-37.135C76.511,123.419,84.68,121.471,93.519,121.867Zm-3.955,19.777a13.494,13.494,0,0,0-13.6,13.22,14.042,14.042,0,0,0,13.889,13.692,13.6,13.6,0,0,0,13.114-13.692,13.1,13.1,0,0,0-13.4-13.251Z" transform="translate(29.515 63.518)" fill="#686868"/><path d="M137.43,170.1a100.832,100.832,0,0,0,0-38.611c9.128-.654,18.149-1.917,27.292-1.08a130.829,130.829,0,0,1,0,40.908Z" transform="translate(71.649 67.851)" fill="#686868"/></g></svg>