<svg xmlns="http://www.w3.org/2000/svg" width="600" height="492.611" viewBox="0 0 600 492.611"><g transform="translate(0)"><rect width="133.974" height="47.63" rx="1" transform="translate(239.771 63.966)" fill="#2a2a2a"/><path d="M599.6,254.462c.076,32.906,0,65.813.4,98.719.107,7.516-3.971,6.876-8.869,6.861-94.612,0-189.239,1-283.85-.3-98.689-1.369-197.378-.274-296.067-.685-8.641,0-11.44-1.75-11.2-10.954.837-31.385.639-62.816.852-94.231l166.48-.289c1.932,2.176,4,4.245,5.735,6.557,49.367,65.737,139.415,83.4,208.894,41.076,20.127-12.171,35.873-28.905,50.2-47.268,3.5.107,7,.3,10.5.3Q521.117,254.417,599.6,254.462Z" transform="translate(-0.001 132.2)" fill="#515251"/><path d="M167.05,313.591.57,313.88V138.47l166.48.2c-17.343,27.384-26.608,57.2-26.167,89.652C141.278,259.2,150.513,287.561,167.05,313.591Z" transform="translate(0.296 72.189)" fill="#2a2a2a"/><path d="M451.518,314.593q-78.47,0-156.971-.167c-3.5,0-7-.2-10.5-.3,16.065-25.148,25.406-52.562,26.4-82.441,1.126-33.682-8.078-64.657-26.365-92.938l139.415-.365q14.042,0,28.053-.137Z" transform="translate(148.084 72.069)" fill="#2a2a2a"/><path d="M359.354,80.324h-35.2c.076-8.763.35-17.541.167-26.289-.106-5.37,1.385-8.17,7.394-7.8a174.718,174.718,0,0,0,20.158,0c5.979-.335,7.515,2.358,7.363,7.8C358.913,62.783,359.278,71.561,359.354,80.324Z" transform="translate(168.989 24.085)" fill="#2a2a2a"/><path d="M383.806,162.717c18.256,28.282,27.49,59.332,26.365,92.938-.989,29.879-10.33,57.293-26.4,82.441-14.3,18.256-30.046,34.991-50.2,47.268-69.479,42.278-159.527,24.615-208.894-41.076-1.734-2.312-3.8-4.382-5.735-6.557-16.522-26.03-25.756-54.388-26.167-85.271-.441-32.45,8.824-62.283,26.167-89.652,10.649-12.049,20.416-24.9,33.1-34.991,71.655-57.369,172.641-43.967,227.911,30.32C381.19,159.644,382.528,161.15,383.806,162.717Zm-8.763,87.553c-.806-68.551-54.449-121.95-118.862-122.924-71.579-1.1-127.533,54.007-127.2,122.908.3,63.47,48.257,123.882,127.153,122.863C323.851,372.235,374.283,316.266,375.043,250.27Z" transform="translate(48.358 48.094)" fill="#e57039"/><path d="M362.631,238.249c-.761,66-51.193,121.965-118.907,122.848-78.9,1.019-126.849-59.332-127.153-122.863-.335-68.9,55.62-124,127.2-122.908C308.182,116.36,361.825,169.7,362.631,238.249Zm-35.523.259c0-49.733-39.357-87.948-90.839-88.161-45.473-.183-85.195,40.939-85.195,88.085.091,48.059,39.935,87.8,88.146,87.918,47.861.107,87.857-39.889,87.948-87.842Z" transform="translate(60.771 60.115)" fill="#2a2a2a"/><path d="M315.3,226.5c0,47.952-40.026,87.948-87.827,87.842-48.211-.122-88.055-39.859-88.146-87.918-.107-47.161,39.661-88.237,85.195-88.085C275.885,138.553,315.3,176.769,315.3,226.5Z" transform="translate(72.637 72.121)" fill="#777"/><path d="M592.5,104.409c-21.405.274-42.826,0-64.231,0h-35.2c-10.877,0-21.755-.167-32.6.335-5.766.274-7.987-1.886-9.721-7.287-9.341-28.905-19.777-55.1-28.495-84.16C419.207,3.5,415.069.2,405.271.2,301.3.183,283.443,0,190.292,0c-6.3,0-9.128,1.8-11.167,7.972C169.571,37.836,159.348,67.456,149.7,97.3c-1.978,6.146-4.96,8.109-11.334,7.972-18.256-.4-36.421-.137-54.631-.137H7.945c-3.453.03-7.865-1.263-7.8,5.112.3,33.469.411,66.939.578,100.408l166.556.2c10.649-12.049,20.416-24.9,33.1-34.991,71.655-57.369,172.641-43.967,227.911,30.32,1.2,1.628,2.541,3.134,3.819,4.7l139.415-.365q14.042,0,28.053-.137c.076-32.846,0-65.691.335-98.537C599.941,105.976,598.222,104.333,592.5,104.409ZM354.55,100.7a7.074,7.074,0,0,1-7.074,7.074H250.6a7.074,7.074,0,0,1-7.074-7.074V74.834A7.074,7.074,0,0,1,250.6,67.76h96.879a7.074,7.074,0,0,1,7.074,7.074Z" transform="translate(0.072)" fill="#515251"/></g></svg>