<svg xmlns="http://www.w3.org/2000/svg" width="534.978" height="534.886" viewBox="0 0 534.978 534.886"><g transform="translate(0 349.986) rotate(-45)"><g transform="translate(0 0)"><path d="M324.864,156.954c-2.664,20.511-7.651,40.113-20.7,56.918-12.726,16.373-29.337,22.565-49.52,19.6a145.744,145.744,0,0,1-32-9.035c-30.037-11.833-56.992-5.388-82.5,12.28-6.877,4.763-14.185,8.931-21.166,13.4-34.234,22.535-86.91,12.19-105.888-36.5-5.626-14.319-8.6-29.233-11.163-44.326-1.905-24.946-3.141-49.848.015-74.749,2.888-22.7,7.442-44.8,20.838-64.181a69.838,69.838,0,0,1,86.6-24.053c14.646,6.728,27.224,16.834,41.14,24.753,20.258,11.521,41.14,16.254,64,8.395,10.493-3.617,21.2-6.743,31.942-9.541,28.771-7.442,50.964,2.367,65.045,28.7,7.665,14.363,11.669,29.843,13.4,45.948l-93.429.387c-1.786-1.682-3.542-3.423-5.373-5.076-15.911-14.363-44.162-11.788-56.888,5.18-14.6,19.484-10.791,46.454,8.291,58.7,18.62,11.908,36.556,9.571,53.971-7.174ZM101.717,169.5a14.691,14.691,0,0,0,3.215-9.02c0-19.766.1-39.533-.089-59.3-.074-8.8-4.287-12.161-14.006-12.146-9.377,0-13.768,3.676-13.842,12.384-.179,19.528,0,39.042-.089,58.57,0,5.522,2.069,10.121,7.264,11.654C90.092,173.416,96.388,173.61,101.717,169.5Z" fill="#eec07d"/><path d="M93.459,52.393,0,52.006C12.28,34.383,12.28,18.025,0,.387L93.429,0,238.463.179c2.977,8.663,1.146,17.593,1.191,26.375,0,8.529,1.756,17.221-1.176,25.631Z" transform="translate(231.405 104.561)" fill="#a0835c"/><path d="M.015,64.663c2.977-8.41,1.22-17.1,1.176-25.631C1.191,30.251,3.036,21.32,0,12.657,4.659,2.6,12.533-.277,23.413.021,48.851.69,74.3.2,99.755.259c9.913,0,16.656,5.239,16.8,14.884.253,17.98,1.742,36.035-1.131,53.971-4.644,6.311-10.806,8.365-18.665,8.231-24.2-.387-48.448-.625-72.636.089C13.054,77.7,4.763,75.142.015,64.663Z" transform="translate(469.868 92.082)" fill="#623b2e"/><path d="M71.153,14.414c12.28,17.638,12.28,34,0,51.619C53.738,82.793,35.8,85.175,17.182,73.223-1.9,60.973-5.71,34,8.891,14.519,21.617-2.45,49.868-5.025,65.779,9.339,67.61,10.991,69.367,12.732,71.153,14.414Z" transform="translate(160.252 90.534)" fill="#623b2e"/><path d="M24.813,80.465c-5.329,4.108-11.625,3.915-17.549,2.143C2.069,81.12-.029,76.476,0,70.954.075,51.426-.089,31.912.09,12.384.164,3.676,4.555.015,13.932,0c9.72,0,13.932,3.349,14.006,12.146.194,19.766,0,39.533.089,59.3A14.691,14.691,0,0,1,24.813,80.465Z" transform="translate(76.904 89.036)" fill="#623b2e"/></g></g></svg>