<svg xmlns="http://www.w3.org/2000/svg" width="600" height="302.677" viewBox="0 0 600 302.677"><g transform="translate(0 0)"><path d="M300.439,209.577q-53.558-44.535-107.176-88.948c-3.621-3.043-3.56-4.565-.654-8.095q39.073-46.574,77.78-93.5c2.83-3.423,4.565-3.621,7.714-.639s7.166,5.812,10.529,8.947c2.511,2.343,4.078,2.024,6.162-.578,5.873-7.349,12.051-14.424,17.924-21.758,2.054-2.541,3.606-2.967,6.253-.73q21.408,18.167,43.287,36.045c2.45,2.024,2.374,3.515.38,5.843-6.086,7.121-11.959,14.485-18.106,21.59-2.191,2.556-2.815,4.23.365,6.543a138.7,138.7,0,0,1,12.324,10.24c2.6,2.4,4.078,1.856,6.086-.7,5.736-7.212,11.822-14.135,17.528-21.3,2.282-2.891,3.88-3.484,6.984-.882q21.028,17.513,42.329,34.569c3.043,2.434,3.134,4.123.609,7.014-6.193,7.06-11.99,14.47-18.121,21.575-2.161,2.5-2.343,4.078.456,6.193a155.328,155.328,0,0,1,12.324,10.24c2.526,2.328,4.017,2.1,6.086-.563,5.827-7.364,12.02-14.439,17.878-21.773,2.069-2.587,3.667-2.86,6.269-.669q21.3,17.984,42.922,35.68c2.617,2.145,2.739,3.743.548,6.284-6.086,7.106-11.959,14.485-18.106,21.59-2.191,2.511-2.237,4.078.517,6.086,4.139,3.043,7.912,6.634,11.974,9.8,2.145,1.658,2.663,2.891.685,5.249q-40.107,48.172-80.108,96.556c-2.784,3.363-4.245,1.019-6.086-.533Z" transform="translate(99.342 1.473)" fill="#2556fb"/><path d="M144.956,257.157q-69.633,0-139.281.122c-4.686,0-5.691-1.293-5.675-5.812q.274-60.785,0-121.585c0-4.443,1.248-5.751,5.538-5.417,4.565.365,9.129-.122,13.8.152,3.423.2,4.428-1.065,4.367-4.4-.183-9.388,0-18.791-.122-28.179,0-3.256.867-4.565,4.336-4.565q28.179.213,56.373,0c3.2,0,4.093,1.187,4.032,4.245-.152,9.388,0,18.791-.107,28.179,0,3.363.533,5.051,4.443,4.808a134.013,134.013,0,0,1,16.022,0c3.56.2,4.336-1.187,4.275-4.458-.213-9.205,0-18.426-.2-27.631-.091-3.682.761-5.158,4.808-5.143q27.388.091,54.775-.426c3.9,0,5.036,1.172,4.945,5.006-.243,9.388,0,18.791-.137,28.179,0,3.287.806,4.565,4.306,4.458,5.341-.259,10.651-.259,16.022,0,3.423.167,4.443-.959,4.367-4.352-.228-9.388,0-18.791-.183-28.179,0-3.317,1-4.565,4.4-4.565q27.92.183,55.825,0c3.378,0,4.565,1.126,4.428,4.473-.167,9.388,0,18.791-.122,28.179,0,3.332.883,4.565,4.336,4.382,5.143-.259,10.316,0,15.474-.107,2.708-.091,3.88.517,3.88,3.591q-.137,62.748,0,125.465c0,4.367-2.6,3.515-5.036,3.515Q214.855,257.187,144.956,257.157Z" transform="translate(0 45.399)" fill="#25fb3e"/><path d="M144.956,170.107q-69.633,0-139.281.122C.989,170.244,0,168.889,0,164.416Q.274,103.555,0,42.831c0-4.443,1.248-5.751,5.538-5.417,4.565.35,9.129-.122,13.8.152,3.423.183,4.428-1.065,4.367-4.4-.183-9.388,0-18.791-.122-28.179,0-3.271.867-4.565,4.336-4.565Q56.114.609,84.293.441c3.2,0,4.093,1.187,4.032,4.23-.152,9.4,0,18.806-.107,28.194,0,3.363.533,5.051,4.443,4.793a137.267,137.267,0,0,1,16.022,0c3.56.183,4.336-1.187,4.275-4.458-.213-9.205,0-18.426-.2-27.631-.091-3.682.761-5.158,4.808-5.143Q144.956.517,172.343,0c3.9,0,5.036,1.172,4.945,5.006-.243,9.388,0,18.791-.137,28.179,0,3.286.806,4.641,4.306,4.458,5.341-.259,10.651-.274,16.022,0,3.423.183,4.443-.959,4.367-4.336-.228-9.388,0-18.791-.183-28.194,0-3.3,1-4.565,4.4-4.565q27.92.152,55.825,0c3.378,0,4.565,1.141,4.428,4.489-.167,9.388,0,18.791-.122,28.179,0,3.332.882,4.565,4.336,4.382,5.143-.259,10.316,0,15.474-.107,2.708-.091,3.88.517,3.88,3.591q-.137,62.748,0,125.465c0,4.367-2.6,3.515-5.036,3.515Z" transform="translate(0 0)" fill="#fb2525"/></g></svg>