<svg xmlns="http://www.w3.org/2000/svg" width="30.87" height="30.87" viewBox="0 0 30.87 30.87"><g transform="translate(-319.565 -21.565)"><path d="M3636.871,347.112l-10.607-10.607-10.607,10.607a2,2,0,0,1-2.829,0l-1.414-1.414a2,2,0,0,1,0-2.829l10.607-10.606-10.607-10.606a2,2,0,0,1,0-2.829l1.414-1.414a2,2,0,0,1,2.829,0l10.607,10.607,10.607-10.607a2,2,0,0,1,2.828,0l1.414,1.414a2,2,0,0,1,0,2.829l-10.606,10.606,10.606,10.606a2,2,0,0,1,0,2.829l-1.414,1.414a2,2,0,0,1-2.828,0Z" transform="translate(-3291.263 -295.263)" fill="#9825fb"/></g></svg>